<mxfile host="Electron" modified="2023-12-19T23:15:26.528Z" agent="Mozilla/5.0 (Windows NT 10.0; Win64; x64) AppleWebKit/537.36 (KHTML, like Gecko) draw.io/22.1.11 Chrome/114.0.5735.289 Electron/25.9.8 Safari/537.36" etag="N6GCqhb11xWVAZBFsKPD" version="22.1.11" type="device">
  <diagram name="Страница 1" id="seRhHvwjpi5-Uy9PJJ-8">
    <mxGraphModel dx="757" dy="571" grid="1" gridSize="10" guides="1" tooltips="1" connect="1" arrows="1" fold="1" page="1" pageScale="1" pageWidth="827" pageHeight="1169" math="0" shadow="0">
      <root>
        <mxCell id="0" />
        <mxCell id="1" parent="0" />
        <mxCell id="QExi0ryvyOE_QswzVxZr-7" style="edgeStyle=orthogonalEdgeStyle;rounded=0;orthogonalLoop=1;jettySize=auto;html=1;exitX=0.5;exitY=1;exitDx=0;exitDy=0;entryX=0.5;entryY=0;entryDx=0;entryDy=0;" edge="1" parent="1" source="Z3LbIYehl-oNpDKCJIGN-2" target="QExi0ryvyOE_QswzVxZr-4">
          <mxGeometry relative="1" as="geometry" />
        </mxCell>
        <mxCell id="Z3LbIYehl-oNpDKCJIGN-2" value="БД" style="rounded=0;whiteSpace=wrap;html=1;" parent="1" vertex="1">
          <mxGeometry x="230" y="190" width="110" height="60" as="geometry" />
        </mxCell>
        <mxCell id="QExi0ryvyOE_QswzVxZr-3" style="edgeStyle=orthogonalEdgeStyle;rounded=0;orthogonalLoop=1;jettySize=auto;html=1;exitX=0;exitY=0.5;exitDx=0;exitDy=0;entryX=1;entryY=0.5;entryDx=0;entryDy=0;" edge="1" parent="1" source="QExi0ryvyOE_QswzVxZr-1" target="Z3LbIYehl-oNpDKCJIGN-2">
          <mxGeometry relative="1" as="geometry" />
        </mxCell>
        <mxCell id="QExi0ryvyOE_QswzVxZr-1" value="API&amp;nbsp;harvester" style="rounded=0;whiteSpace=wrap;html=1;" vertex="1" parent="1">
          <mxGeometry x="420" y="190" width="120" height="60" as="geometry" />
        </mxCell>
        <mxCell id="QExi0ryvyOE_QswzVxZr-9" style="edgeStyle=orthogonalEdgeStyle;rounded=0;orthogonalLoop=1;jettySize=auto;html=1;exitX=0.5;exitY=0;exitDx=0;exitDy=0;" edge="1" parent="1" source="QExi0ryvyOE_QswzVxZr-4">
          <mxGeometry relative="1" as="geometry">
            <mxPoint x="285.0689655172414" y="250" as="targetPoint" />
          </mxGeometry>
        </mxCell>
        <mxCell id="QExi0ryvyOE_QswzVxZr-12" style="edgeStyle=orthogonalEdgeStyle;rounded=0;orthogonalLoop=1;jettySize=auto;html=1;exitX=0.5;exitY=1;exitDx=0;exitDy=0;entryX=0.5;entryY=0;entryDx=0;entryDy=0;" edge="1" parent="1" source="QExi0ryvyOE_QswzVxZr-4" target="QExi0ryvyOE_QswzVxZr-10">
          <mxGeometry relative="1" as="geometry" />
        </mxCell>
        <mxCell id="QExi0ryvyOE_QswzVxZr-4" value="backend server" style="rounded=0;whiteSpace=wrap;html=1;" vertex="1" parent="1">
          <mxGeometry x="225" y="350" width="120" height="60" as="geometry" />
        </mxCell>
        <mxCell id="QExi0ryvyOE_QswzVxZr-11" style="edgeStyle=orthogonalEdgeStyle;rounded=0;orthogonalLoop=1;jettySize=auto;html=1;exitX=0.5;exitY=0;exitDx=0;exitDy=0;entryX=0.5;entryY=1;entryDx=0;entryDy=0;" edge="1" parent="1" source="QExi0ryvyOE_QswzVxZr-10" target="QExi0ryvyOE_QswzVxZr-4">
          <mxGeometry relative="1" as="geometry" />
        </mxCell>
        <mxCell id="QExi0ryvyOE_QswzVxZr-10" value="Telegram" style="rounded=0;whiteSpace=wrap;html=1;" vertex="1" parent="1">
          <mxGeometry x="225" y="480" width="120" height="60" as="geometry" />
        </mxCell>
      </root>
    </mxGraphModel>
  </diagram>
</mxfile>
